<svg xmlns="http://www.w3.org/2000/svg" viewBox="0 0 86.42 113.62"><defs><style>.cls-1{fill:#fff;}</style></defs><g id="Capa_2" data-name="Capa 2"><g id="Capa_1-2" data-name="Capa 1"><path class="cls-1" d="M43.21,55.57c12.63,0,22.87-12.44,22.87-27.79S62.72,0,43.21,0,20.33,12.44,20.33,27.78,30.58,55.57,43.21,55.57Z"/><path class="cls-1" d="M0,98Z"/><path class="cls-1" d="M86.41,98.72c0-.26,0-1.78,0,0Z"/><path class="cls-1" d="M86.36,96.86c-.42-26.73-3.91-34.34-30.63-39.16,0,0-3.76,4.79-12.52,4.79S30.68,57.7,30.68,57.7C4.26,62.47.56,70,.07,96,0,98.12,0,98.23,0,98c0,.46,0,1.31,0,2.8,0,0,6.36,12.83,43.2,12.83s43.2-12.83,43.2-12.83V98.72A16.87,16.87,0,0,1,86.36,96.86Z"/></g></g></svg>