<svg xmlns="http://www.w3.org/2000/svg" viewBox="0 0 64.7 64.7"><defs><style>.cls-1{fill:#fff;}</style></defs><g id="Capa_2" data-name="Capa 2"><g id="Capa_1-2" data-name="Capa 1"><path class="cls-1" d="M58.83,0c-.07,0-.13,0-.2,0h-29a8.1,8.1,0,0,0-8.08,8.09v2.69a2.7,2.7,0,1,0,5.39,0V8.09a2.7,2.7,0,0,1,2.69-2.7H42.21l-.82.28a5.42,5.42,0,0,0-3.65,5.11V51.22H29.65A2.7,2.7,0,0,1,27,48.52V43.13a2.7,2.7,0,0,0-5.39,0v5.39a8.1,8.1,0,0,0,8.08,8.09h8.09v2.7a5.4,5.4,0,0,0,5.39,5.39,5.46,5.46,0,0,0,1.72-.27L61.05,59a5.42,5.42,0,0,0,3.65-5.11V5.39A5.4,5.4,0,0,0,58.83,0Z"/><path class="cls-1" d="M28.86,25.05,18.08,14.27a2.69,2.69,0,0,0-4.6,1.9v8.09H2.7a2.7,2.7,0,1,0,0,5.39H13.48v8.09a2.7,2.7,0,0,0,4.6,1.91L28.86,28.86A2.68,2.68,0,0,0,28.86,25.05Z"/></g></g></svg>